<?xml version="1.0" encoding="UTF-8"?>
<svg xmlns="http://www.w3.org/2000/svg" xmlns:xlink="http://www.w3.org/1999/xlink" width="20px" height="20px" viewBox="0 0 36 36" version="1.1">
<g id="surface1">
<path style=" stroke:none;fill-rule:evenodd;fill:rgb(26.666667%,37.647059%,62.745098%);fill-opacity:1;" d="M 4 0 L 32 0 C 34.210938 0 36 1.789062 36 4 L 36 32 C 36 34.210938 34.210938 36 32 36 L 4 36 C 1.789062 36 0 34.210938 0 32 L 0 4 C 0 1.789062 1.789062 0 4 0 Z M 4 0 "/>
<path style=" stroke:none;fill-rule:evenodd;fill:rgb(100%,100%,100%);fill-opacity:1;" d="M 30.230469 6.707031 L 30.230469 11.363281 L 27.46875 11.371094 C 25.304688 11.371094 24.886719 12.398438 24.886719 13.902344 L 24.886719 17.234375 L 30.046875 17.234375 L 29.375 22.445312 L 24.886719 22.445312 L 24.886719 36 L 19.503906 36 L 19.503906 22.445312 L 15 22.445312 L 15 17.234375 L 19.503906 17.234375 L 19.503906 13.394531 C 19.503906 8.933594 22.222656 6.5 26.210938 6.5 C 28.109375 6.5 29.75 6.644531 30.230469 6.707031 Z M 30.230469 6.707031 "/>
</g>
</svg>
